ExploreSansVariable-HeavySans.ufo
<glyph name="percent" format="2">
  <advance width="823"/>
  <unicode hex="0025"/>
  <outline>
    <contour>
      <point x="541" y="708" type="line"/>
      <point x="690" y="708" type="line"/>
      <point x="283" y="0" type="line"/>
      <point x="133" y="0" type="line"/>
    </contour>
    <contour>
      <point x="628" y="360" type="curve" smooth="yes"/>
      <point x="735" y="360"/>
      <point x="807" y="286"/>
      <point x="807" y="176" type="curve" smooth="yes"/>
      <point x="807" y="66"/>
      <point x="735" y="-8"/>
      <point x="628" y="-8" type="curve" smooth="yes"/>
      <point x="521" y="-8"/>
      <point x="449" y="66"/>
      <point x="449" y="176" type="curve" smooth="yes"/>
      <point x="449" y="286"/>
      <point x="521" y="360"/>
    </contour>
    <contour>
      <point x="628" y="251" type="curve" smooth="yes"/>
      <point x="589" y="251"/>
      <point x="568" y="226"/>
      <point x="568" y="174" type="curve" smooth="yes"/>
      <point x="568" y="125"/>
      <point x="589" y="100"/>
      <point x="629" y="100" type="curve" smooth="yes"/>
      <point x="669" y="100"/>
      <point x="688" y="125"/>
      <point x="688" y="174" type="curve" smooth="yes"/>
      <point x="688" y="224"/>
      <point x="667" y="251"/>
    </contour>
    <contour>
      <point x="194" y="608" type="curve" smooth="yes"/>
      <point x="153" y="608"/>
      <point x="134" y="583"/>
      <point x="134" y="531" type="curve" smooth="yes"/>
      <point x="134" y="481"/>
      <point x="154" y="457"/>
      <point x="195" y="457" type="curve" smooth="yes"/>
      <point x="235" y="457"/>
      <point x="254" y="480"/>
      <point x="254" y="532" type="curve" smooth="yes"/>
      <point x="254" y="582"/>
      <point x="234" y="608"/>
    </contour>
    <contour>
      <point x="195" y="716" type="curve" smooth="yes"/>
      <point x="302" y="716"/>
      <point x="373" y="644"/>
      <point x="373" y="534" type="curve" smooth="yes"/>
      <point x="373" y="424"/>
      <point x="300" y="348"/>
      <point x="193" y="348" type="curve" smooth="yes"/>
      <point x="87" y="348"/>
      <point x="16" y="423"/>
      <point x="16" y="534" type="curve" smooth="yes"/>
      <point x="16" y="643"/>
      <point x="87" y="716"/>
    </contour>
  </outline>
</glyph>
<glyph name="ampersand" format="2">
  <advance width="756"/>
  <unicode hex="0026"/>
  <outline>
    <contour>
      <point x="352" y="716" type="curve" smooth="yes"/>
      <point x="413" y="716"/>
      <point x="473" y="703"/>
      <point x="521" y="677" type="curve"/>
      <point x="479" y="550" type="line"/>
      <point x="452" y="563"/>
      <point x="414" y="577"/>
      <point x="378" y="577" type="curve" smooth="yes"/>
      <point x="331" y="577"/>
      <point x="307" y="554"/>
      <point x="307" y="515" type="curve" smooth="yes"/>
      <point x="307" y="478"/>
      <point x="331" y="450"/>
      <point x="356" y="421" type="curve"/>
      <point x="724" y="0" type="line"/>
      <point x="523" y="0" type="line"/>
      <point x="190" y="384" type="line" smooth="yes"/>
      <point x="152" y="427"/>
      <point x="130" y="464"/>
      <point x="130" y="523" type="curve" smooth="yes"/>
      <point x="130" y="633"/>
      <point x="210" y="716"/>
    </contour>
    <contour>
      <point x="302" y="460" type="line"/>
      <point x="308" y="341" type="line"/>
      <point x="299" y="341" type="line" smooth="yes"/>
      <point x="232" y="341"/>
      <point x="199" y="295"/>
      <point x="199" y="228" type="curve" smooth="yes"/>
      <point x="199" y="161"/>
      <point x="235.405" y="129"/>
      <point x="296" y="129" type="curve" smooth="yes"/>
      <point x="355.405" y="129"/>
      <point x="409" y="148"/>
      <point x="432" y="237" type="curve" smooth="yes"/>
      <point x="484" y="436" type="line"/>
      <point x="716" y="420" type="line"/>
      <point x="716" y="284" type="line"/>
      <point x="597" y="292" type="line"/>
      <point x="589" y="261"/>
      <point x="575" y="220"/>
      <point x="560" y="166" type="curve" smooth="yes"/>
      <point x="532" y="66"/>
      <point x="413" y="-8"/>
      <point x="295" y="-8" type="curve" smooth="yes"/>
      <point x="120" y="-8"/>
      <point x="32" y="95"/>
      <point x="32" y="216" type="curve" smooth="yes"/>
      <point x="32" y="359"/>
      <point x="114" y="460"/>
      <point x="289" y="460" type="curve" smooth="yes"/>
    </contour>
  </outline>
</glyph>
<glyph name="comma" format="2">
  <advance width="273"/>
  <unicode hex="002C"/>
  <outline>
    <contour>
      <point x="56" y="79" type="line"/>
      <point x="217" y="79" type="line"/>
      <point x="154" y="-143" type="line"/>
      <point x="56" y="-143" type="line"/>
    </contour>
  </outline>
</glyph>
<glyph name="hyphen" format="2">
  <advance width="500"/>
  <unicode hex="002D"/>
  <outline>
    <contour>
      <point x="34" y="331" type="line"/>
      <point x="466" y="331" type="line"/>
      <point x="466" y="207" type="line"/>
      <point x="34" y="207" type="line"/>
    </contour>
  </outline>
</glyph>
<glyph name="period" format="2">
  <advance width="252"/>
  <unicode hex="002E"/>
  <outline>
    <contour>
      <point x="126" y="196" type="curve" smooth="yes"/>
      <point x="182" y="196"/>
      <point x="228" y="161"/>
      <point x="228" y="94" type="curve" smooth="yes"/>
      <point x="228" y="26"/>
      <point x="182" y="-8"/>
      <point x="126" y="-8" type="curve" smooth="yes"/>
      <point x="70" y="-8"/>
      <point x="24" y="26"/>
      <point x="24" y="94" type="curve" smooth="yes"/>
      <point x="24" y="161"/>
      <point x="70" y="196"/>
    </contour>
  </outline>
</glyph>
<glyph name="one" format="2">
  <advance width="626"/>
  <unicode hex="0031"/>
  <outline>
    <contour>
      <point x="304" y="708" type="line"/>
      <point x="432" y="708" type="line"/>
      <point x="432" y="160" type="line"/>
      <point x="583" y="160" type="line"/>
      <point x="583" y="0" type="line"/>
      <point x="57" y="0" type="line"/>
      <point x="57" y="160" type="line"/>
      <point x="240" y="160" type="line"/>
      <point x="240" y="516" type="line"/>
      <point x="66" y="450" type="line"/>
      <point x="66" y="620" type="line"/>
    </contour>
  </outline>
</glyph>
<glyph name="two" format="2">
  <advance width="595"/>
  <unicode hex="0032"/>
  <outline>
    <contour>
      <point x="35" y="626" type="line"/>
      <point x="94" y="681"/>
      <point x="190" y="716"/>
      <point x="280" y="716" type="curve" smooth="yes"/>
      <point x="456" y="716"/>
      <point x="545" y="632"/>
      <point x="545" y="494" type="curve" smooth="yes"/>
      <point x="545" y="402"/>
      <point x="479" y="325"/>
      <point x="391" y="244" type="curve" smooth="yes"/>
      <point x="379" y="233"/>
      <point x="300" y="161"/>
      <point x="300" y="160" type="curve"/>
      <point x="554" y="160" type="line"/>
      <point x="553" y="0" type="line"/>
      <point x="44" y="0" type="line"/>
      <point x="44" y="130" type="line"/>
      <point x="283" y="360" type="line" smooth="yes"/>
      <point x="338" y="412"/>
      <point x="361" y="448"/>
      <point x="361" y="488" type="curve" smooth="yes"/>
      <point x="361" y="528"/>
      <point x="335" y="567"/>
      <point x="269" y="567" type="curve" smooth="yes"/>
      <point x="208" y="567"/>
      <point x="159" y="555"/>
      <point x="110" y="506" type="curve"/>
    </contour>
  </outline>
</glyph>
<glyph name="four" format="2">
  <advance width="595"/>
  <unicode hex="0034"/>
  <outline>
    <contour>
      <point x="222" y="708" type="line"/>
      <point x="419" y="708" type="line"/>
      <point x="218" y="283" type="line"/>
      <point x="333" y="283" type="line"/>
      <point x="333" y="484" type="line"/>
      <point x="509" y="484" type="line"/>
      <point x="509" y="283" type="line"/>
      <point x="577" y="283" type="line"/>
      <point x="577" y="123" type="line"/>
      <point x="509" y="123" type="line"/>
      <point x="509" y="0" type="line"/>
      <point x="333" y="0" type="line"/>
      <point x="333" y="123" type="line"/>
      <point x="31" y="123" type="line"/>
      <point x="31" y="283" type="line"/>
    </contour>
  </outline>
</glyph>
<glyph name="six" format="2">
  <advance width="595"/>
  <unicode hex="0036"/>
  <outline>
    <contour>
      <point x="345" y="716" type="curve" smooth="yes"/>
      <point x="396" y="716"/>
      <point x="462" y="708"/>
      <point x="533" y="680" type="curve"/>
      <point x="494" y="538" type="line"/>
      <point x="432" y="555"/>
      <point x="405" y="562"/>
      <point x="358" y="562" type="curve" smooth="yes"/>
      <point x="275" y="562"/>
      <point x="213" y="510"/>
      <point x="213" y="385" type="curve"/>
      <point x="225" y="430"/>
      <point x="294" y="469"/>
      <point x="361" y="469" type="curve" smooth="yes"/>
      <point x="495" y="469"/>
      <point x="571" y="384"/>
      <point x="571" y="233" type="curve" smooth="yes"/>
      <point x="571" y="79"/>
      <point x="473" y="-8"/>
      <point x="298" y="-8" type="curve" smooth="yes"/>
      <point x="120" y="-8"/>
      <point x="24" y="110"/>
      <point x="24" y="328" type="curve" smooth="yes"/>
      <point x="24" y="576"/>
      <point x="157" y="716"/>
    </contour>
    <contour>
      <point x="298" y="332" type="curve" smooth="yes"/>
      <point x="246" y="332"/>
      <point x="216" y="299"/>
      <point x="216" y="243" type="curve" smooth="yes"/>
      <point x="216" y="185"/>
      <point x="248" y="150"/>
      <point x="299" y="150" type="curve" smooth="yes"/>
      <point x="348" y="150"/>
      <point x="379" y="186"/>
      <point x="379" y="244" type="curve" smooth="yes"/>
      <point x="379" y="300"/>
      <point x="350" y="332"/>
    </contour>
  </outline>
</glyph>
<glyph name="greater" format="2">
  <advance width="590"/>
  <unicode hex="003E"/>
  <outline>
    <contour>
      <point x="81" y="511" type="line"/>
      <point x="505" y="331" type="line"/>
      <point x="505" y="226" type="line"/>
      <point x="81" y="46" type="line"/>
      <point x="34" y="167" type="line"/>
      <point x="317" y="278" type="line"/>
      <point x="34" y="390" type="line"/>
    </contour>
  </outline>
</glyph>
<glyph name="C" format="2">
  <advance width="665"/>
  <unicode hex="0043"/>
  <outline>
    <contour>
      <point x="366" y="716" type="curve" smooth="yes"/>
      <point x="479" y="716"/>
      <point x="546" y="689"/>
      <point x="635" y="620" type="curve"/>
      <point x="552" y="503" type="line"/>
      <point x="503" y="544"/>
      <point x="460" y="564"/>
      <point x="389" y="564" type="curve" smooth="yes"/>
      <point x="284" y="564"/>
      <point x="224" y="485"/>
      <point x="224" y="353" type="curve" smooth="yes"/>
      <point x="224" y="218"/>
      <point x="278" y="144"/>
      <point x="392" y="144" type="curve" smooth="yes"/>
      <point x="447" y="144"/>
      <point x="512" y="161"/>
      <point x="572" y="208" type="curve"/>
      <point x="647" y="87" type="line"/>
      <point x="590" y="40"/>
      <point x="503" y="-8"/>
      <point x="367" y="-8" type="curve" smooth="yes"/>
      <point x="170" y="-8"/>
      <point x="32" y="132"/>
      <point x="32" y="353" type="curve" smooth="yes"/>
      <point x="32" y="577"/>
      <point x="179" y="716"/>
    </contour>
  </outline>
</glyph>
<glyph name="D" format="2">
  <advance width="695"/>
  <unicode hex="0044"/>
  <outline>
    <contour>
      <point x="256" y="548" type="line"/>
      <point x="256" y="160" type="line"/>
      <point x="304" y="160" type="line" smooth="yes"/>
      <point x="423" y="160"/>
      <point x="471" y="226"/>
      <point x="471" y="361" type="curve" smooth="yes"/>
      <point x="471" y="490"/>
      <point x="419" y="548"/>
      <point x="306" y="548" type="curve" smooth="yes"/>
    </contour>
    <contour>
      <point x="64" y="708" type="line"/>
      <point x="328" y="708" type="line" smooth="yes"/>
      <point x="542" y="708"/>
      <point x="663" y="566"/>
      <point x="663" y="361" type="curve" smooth="yes"/>
      <point x="663" y="138"/>
      <point x="541" y="0"/>
      <point x="324" y="0" type="curve" smooth="yes"/>
      <point x="64" y="0" type="line"/>
    </contour>
  </outline>
</glyph>
<glyph name="F" format="2">
  <advance width="597"/>
  <unicode hex="0046"/>
  <outline>
    <contour>
      <point x="64" y="708" type="line"/>
      <point x="581" y="708" type="line"/>
      <point x="581" y="543" type="line"/>
      <point x="256" y="543" type="line"/>
      <point x="256" y="425" type="line"/>
      <point x="483" y="425" type="line"/>
      <point x="483" y="275" type="line"/>
      <point x="256" y="275" type="line"/>
      <point x="256" y="0" type="line"/>
      <point x="64" y="0" type="line"/>
    </contour>
  </outline>
</glyph>
<glyph name="H" format="2">
  <advance width="716"/>
  <unicode hex="0048"/>
  <outline>
    <contour>
      <point x="64" y="708" type="line"/>
      <point x="256" y="708" type="line"/>
      <point x="256" y="451" type="line"/>
      <point x="460" y="451" type="line"/>
      <point x="460" y="708" type="line"/>
      <point x="652" y="708" type="line"/>
      <point x="652" y="0" type="line"/>
      <point x="460" y="0" type="line"/>
      <point x="460" y="281" type="line"/>
      <point x="256" y="281" type="line"/>
      <point x="256" y="0" type="line"/>
      <point x="64" y="0" type="line"/>
    </contour>
  </outline>
</glyph>
<glyph name="S" format="2">
  <advance width="648"/>
  <unicode hex="0053"/>
  <outline>
    <contour>
      <point x="349" y="716" type="curve" smooth="yes"/>
      <point x="448" y="716"/>
      <point x="537" y="688"/>
      <point x="619" y="623" type="curve"/>
      <point x="539" y="504" type="line"/>
      <point x="495" y="535"/>
      <point x="432" y="562"/>
      <point x="351" y="562" type="curve" smooth="yes"/>
      <point x="277" y="562"/>
      <point x="243" y="536"/>
      <point x="243" y="496" type="curve" smooth="yes"/>
      <point x="243" y="456"/>
      <point x="264" y="450"/>
      <point x="341" y="433" type="curve" smooth="yes"/>
      <point x="392" y="422" type="line" smooth="yes"/>
      <point x="554" y="387"/>
      <point x="624" y="326"/>
      <point x="624" y="208" type="curve" smooth="yes"/>
      <point x="624" y="68"/>
      <point x="516" y="-8"/>
      <point x="302" y="-8" type="curve" smooth="yes"/>
      <point x="200" y="-8"/>
      <point x="74" y="30"/>
      <point x="24" y="75" type="curve"/>
      <point x="103" y="203" type="line"/>
      <point x="161" y="159"/>
      <point x="226" y="139"/>
      <point x="309" y="139" type="curve" smooth="yes"/>
      <point x="391" y="139"/>
      <point x="436" y="162"/>
      <point x="436" y="202" type="curve" smooth="yes"/>
      <point x="436" y="245"/>
      <point x="410" y="254"/>
      <point x="324" y="273" type="curve" smooth="yes"/>
      <point x="279" y="283" type="line" smooth="yes"/>
      <point x="135" y="315"/>
      <point x="54" y="374"/>
      <point x="54" y="505" type="curve" smooth="yes"/>
      <point x="54" y="636"/>
      <point x="155" y="716"/>
    </contour>
  </outline>
</glyph>
<glyph name="a" format="2">
  <advance width="581"/>
  <unicode hex="0061"/>
  <anchor x="283" y="687" name="AccentCenter"/>
  <anchor x="281" y="687" name="Ring"/>
  <outline>
    <contour>
      <point x="251" y="528" type="curve" smooth="yes"/>
      <point x="418" y="528"/>
      <point x="489" y="452"/>
      <point x="489" y="307" type="curve" smooth="yes"/>
      <point x="489" y="125" type="line"/>
      <point x="556" y="125" type="line"/>
      <point x="556" y="0" type="line"/>
      <point x="324" y="0" type="line"/>
      <point x="324" y="61" type="line"/>
      <point x="288" y="21"/>
      <point x="267" y="-8"/>
      <point x="183" y="-8" type="curve" smooth="yes"/>
      <point x="71" y="-8"/>
      <point x="32" y="58"/>
      <point x="32" y="156" type="curve" smooth="yes"/>
      <point x="32" y="265"/>
      <point x="116" y="311"/>
      <point x="247" y="311" type="curve" smooth="yes"/>
      <point x="307" y="311" type="line"/>
      <point x="307" y="333" type="line" smooth="yes"/>
      <point x="307" y="381"/>
      <point x="283" y="406"/>
      <point x="223" y="406" type="curve" smooth="yes"/>
      <point x="178" y="406"/>
      <point x="138" y="387"/>
      <point x="113" y="374" type="curve"/>
      <point x="60" y="482" type="line"/>
      <point x="119" y="512"/>
      <point x="172" y="528"/>
    </contour>
    <contour>
      <point x="307" y="200" type="line"/>
      <point x="268" y="200" type="line" smooth="yes"/>
      <point x="236" y="200"/>
      <point x="216" y="188"/>
      <point x="216" y="159" type="curve" smooth="yes"/>
      <point x="216" y="131"/>
      <point x="230" y="118"/>
      <point x="259" y="118" type="curve" smooth="yes"/>
      <point x="285" y="118"/>
      <point x="296" y="127"/>
      <point x="307" y="146" type="curve"/>
    </contour>
  </outline>
</glyph>
<glyph name="c" format="2">
  <advance width="552"/>
  <unicode hex="0063"/>
  <outline>
    <contour>
      <point x="314" y="528" type="curve" smooth="yes"/>
      <point x="426" y="528"/>
      <point x="475" y="502"/>
      <point x="533" y="460" type="curve"/>
      <point x="460" y="354" type="line"/>
      <point x="427" y="379"/>
      <point x="391" y="396"/>
      <point x="348" y="396" type="curve" smooth="yes"/>
      <point x="259" y="396"/>
      <point x="220" y="336"/>
      <point x="220" y="254" type="curve" smooth="yes"/>
      <point x="220" y="176"/>
      <point x="259" y="129"/>
      <point x="349" y="129" type="curve" smooth="yes"/>
      <point x="401" y="129"/>
      <point x="439" y="155"/>
      <point x="465" y="180" type="curve"/>
      <point x="545" y="76" type="line"/>
      <point x="496" y="31"/>
      <point x="429" y="-8"/>
      <point x="313" y="-8" type="curve" smooth="yes"/>
      <point x="139" y="-8"/>
      <point x="32" y="89"/>
      <point x="32" y="259" type="curve" smooth="yes"/>
      <point x="32" y="426"/>
      <point x="140" y="528"/>
    </contour>
  </outline>
</glyph>
<glyph name="e" format="2">
  <advance width="585"/>
  <unicode hex="0065"/>
  <anchor x="311" y="686" name="AccentCenter"/>
  <outline>
    <contour>
      <point x="300" y="528" type="curve" smooth="yes"/>
      <point x="454" y="528"/>
      <point x="553" y="444"/>
      <point x="553" y="293" type="curve" smooth="yes"/>
      <point x="553" y="266"/>
      <point x="549" y="235"/>
      <point x="542" y="218" type="curve"/>
      <point x="224" y="218" type="line"/>
      <point x="224" y="172"/>
      <point x="261" y="121"/>
      <point x="341" y="121" type="curve" smooth="yes"/>
      <point x="407" y="121"/>
      <point x="444" y="134"/>
      <point x="488" y="160" type="curve"/>
      <point x="528" y="48" type="line"/>
      <point x="462" y="13"/>
      <point x="410" y="-8"/>
      <point x="317" y="-8" type="curve" smooth="yes"/>
      <point x="135" y="-8"/>
      <point x="32" y="90"/>
      <point x="32" y="261" type="curve" smooth="yes"/>
      <point x="32" y="436"/>
      <point x="132" y="528"/>
    </contour>
    <contour>
      <point x="299" y="409" type="curve" smooth="yes"/>
      <point x="248" y="409"/>
      <point x="224" y="371"/>
      <point x="224" y="313" type="curve"/>
      <point x="373" y="313" type="line"/>
      <point x="373" y="318" type="line" smooth="yes"/>
      <point x="373" y="374"/>
      <point x="350" y="409"/>
    </contour>
  </outline>
</glyph>
<glyph name="k" format="2">
  <advance width="636"/>
  <unicode hex="006B"/>
  <outline>
    <contour>
      <point x="64" y="708" type="line"/>
      <point x="256" y="708" type="line"/>
      <point x="256" y="360" type="line"/>
      <point x="297" y="360" type="line"/>
      <point x="406" y="519" type="line"/>
      <point x="610" y="519" type="line"/>
      <point x="436" y="275" type="line"/>
      <point x="624" y="0" type="line"/>
      <point x="418" y="0" type="line"/>
      <point x="297" y="185" type="line"/>
      <point x="256" y="185" type="line"/>
      <point x="256" y="0" type="line"/>
      <point x="64" y="0" type="line"/>
    </contour>
  </outline>
</glyph>
<glyph name="n" format="2">
  <advance width="652"/>
  <unicode hex="006E"/>
  <anchor x="346" y="687" name="AccentCenter"/>
  <outline>
    <contour>
      <point x="64" y="520" type="line"/>
      <point x="213" y="520" type="line"/>
      <point x="256" y="443" type="line"/>
      <point x="284" y="500"/>
      <point x="342" y="528"/>
      <point x="409" y="528" type="curve" smooth="yes"/>
      <point x="524" y="528"/>
      <point x="588" y="449"/>
      <point x="588" y="318" type="curve" smooth="yes"/>
      <point x="588" y="0" type="line"/>
      <point x="396" y="0" type="line"/>
      <point x="396" y="304" type="line" smooth="yes"/>
      <point x="396" y="360"/>
      <point x="372" y="379"/>
      <point x="333" y="379" type="curve" smooth="yes"/>
      <point x="300" y="379"/>
      <point x="266" y="355"/>
      <point x="256" y="328" type="curve"/>
      <point x="256" y="0" type="line"/>
      <point x="64" y="0" type="line"/>
    </contour>
  </outline>
</glyph>
<glyph name="s" format="2">
  <advance width="536"/>
  <unicode hex="0073"/>
  <outline>
    <contour>
      <point x="287" y="528" type="curve" smooth="yes"/>
      <point x="387" y="528"/>
      <point x="434" y="504"/>
      <point x="490" y="462" type="curve"/>
      <point x="422" y="363" type="line"/>
      <point x="383" y="388"/>
      <point x="349" y="404"/>
      <point x="296" y="404" type="curve" smooth="yes"/>
      <point x="254" y="404"/>
      <point x="223" y="396"/>
      <point x="223" y="372" type="curve" smooth="yes"/>
      <point x="223" y="349"/>
      <point x="230" y="338"/>
      <point x="279" y="331" type="curve" smooth="yes"/>
      <point x="336" y="323" type="line" smooth="yes"/>
      <point x="444" y="306"/>
      <point x="505" y="249"/>
      <point x="505" y="159" type="curve" smooth="yes"/>
      <point x="505" y="50"/>
      <point x="434" y="-8"/>
      <point x="254" y="-8" type="curve" smooth="yes"/>
      <point x="153" y="-8"/>
      <point x="75" y="18"/>
      <point x="32" y="58" type="curve"/>
      <point x="97" y="156" type="line"/>
      <point x="126" y="130"/>
      <point x="183" y="111"/>
      <point x="254" y="111" type="curve" smooth="yes"/>
      <point x="306" y="111"/>
      <point x="334" y="120"/>
      <point x="334" y="144" type="curve" smooth="yes"/>
      <point x="334" y="169"/>
      <point x="319" y="177"/>
      <point x="275" y="183" type="curve" smooth="yes"/>
      <point x="223" y="190" type="line" smooth="yes"/>
      <point x="114" y="205"/>
      <point x="54" y="262"/>
      <point x="53" y="359" type="curve" smooth="yes"/>
      <point x="53" y="462"/>
      <point x="142" y="528"/>
    </contour>
  </outline>
</glyph>
<glyph name="u" format="2">
  <advance width="651"/>
  <unicode hex="0075"/>
  <anchor x="312" y="684" name="AccentCenter"/>
  <outline>
    <contour>
      <point x="64" y="520" type="line"/>
      <point x="256" y="520" type="line"/>
      <point x="256" y="216" type="line" smooth="yes"/>
      <point x="256" y="166"/>
      <point x="279" y="145"/>
      <point x="318" y="145" type="curve" smooth="yes"/>
      <point x="351" y="145"/>
      <point x="381" y="167"/>
      <point x="395" y="192" type="curve"/>
      <point x="395" y="520" type="line"/>
      <point x="587" y="520" type="line"/>
      <point x="587" y="0" type="line"/>
      <point x="438" y="0" type="line"/>
      <point x="395" y="79" type="line"/>
      <point x="367" y="29"/>
      <point x="309" y="-8"/>
      <point x="242" y="-8" type="curve" smooth="yes"/>
      <point x="127" y="-8"/>
      <point x="64" y="71"/>
      <point x="64" y="202" type="curve" smooth="yes"/>
    </contour>
  </outline>
</glyph>
<glyph name="cent" format="2">
  <advance width="560"/>
  <unicode hex="00A2"/>
  <outline>
    <contour>
      <point x="285" y="618" type="line"/>
      <point x="397" y="618" type="line"/>
      <point x="397" y="-94" type="line"/>
      <point x="285" y="-94" type="line"/>
    </contour>
    <component base="c"/>
  </outline>
</glyph>
<glyph name="sterling" format="2">
  <advance width="643"/>
  <unicode hex="00A3"/>
  <outline>
    <contour>
      <point x="382" y="716" type="curve" smooth="yes"/>
      <point x="465" y="716"/>
      <point x="534" y="692"/>
      <point x="593" y="654" type="curve"/>
      <point x="534" y="533" type="line"/>
      <point x="500" y="552"/>
      <point x="459" y="580"/>
      <point x="392" y="580" type="curve" smooth="yes"/>
      <point x="335" y="580"/>
      <point x="298" y="544"/>
      <point x="298" y="496" type="curve" smooth="yes"/>
      <point x="298" y="473"/>
      <point x="301" y="454"/>
      <point x="306" y="438" type="curve"/>
      <point x="497" y="438" type="line"/>
      <point x="497" y="285" type="line"/>
      <point x="358" y="285" type="line"/>
      <point x="358" y="280"/>
      <point x="359" y="274"/>
      <point x="359" y="268" type="curve" smooth="yes"/>
      <point x="359" y="223"/>
      <point x="342" y="182"/>
      <point x="297" y="154" type="curve"/>
      <point x="603" y="154" type="line"/>
      <point x="603" y="0" type="line"/>
      <point x="74" y="0" type="line"/>
      <point x="74" y="146" type="line"/>
      <point x="120" y="154"/>
      <point x="183" y="194"/>
      <point x="183" y="267" type="curve" smooth="yes"/>
      <point x="183" y="273"/>
      <point x="183" y="279"/>
      <point x="182" y="285" type="curve"/>
      <point x="36" y="285" type="line"/>
      <point x="36" y="438" type="line"/>
      <point x="133" y="438" type="line"/>
      <point x="126" y="459"/>
      <point x="122" y="483"/>
      <point x="122" y="510" type="curve" smooth="yes"/>
      <point x="122" y="632"/>
      <point x="222" y="716"/>
    </contour>
  </outline>
</glyph>
<glyph name="copyright" format="2">
  <advance width="904"/>
  <unicode hex="00A9"/>
  <outline>
    <contour>
      <point x="452" y="776" type="curve" smooth="yes"/>
      <point x="220" y="776"/>
      <point x="32" y="588"/>
      <point x="32" y="356" type="curve" smooth="yes"/>
      <point x="32" y="123"/>
      <point x="220" y="-64"/>
      <point x="452" y="-64" type="curve" smooth="yes"/>
      <point x="685" y="-64"/>
      <point x="872" y="123"/>
      <point x="872" y="356" type="curve" smooth="yes"/>
      <point x="872" y="588"/>
      <point x="685" y="776"/>
    </contour>
    <contour>
      <point x="452" y="675" type="curve" smooth="yes"/>
      <point x="626" y="675"/>
      <point x="765" y="530"/>
      <point x="765" y="356" type="curve" smooth="yes"/>
      <point x="765" y="182"/>
      <point x="626" y="37"/>
      <point x="452" y="37" type="curve" smooth="yes"/>
      <point x="278" y="37"/>
      <point x="139" y="182"/>
      <point x="139" y="356" type="curve" smooth="yes"/>
      <point x="139" y="530"/>
      <point x="278" y="675"/>
    </contour>
    <contour>
      <point x="456" y="594" type="curve" smooth="yes"/>
      <point x="555" y="594"/>
      <point x="597" y="570"/>
      <point x="648" y="534" type="curve"/>
      <point x="584" y="436" type="line"/>
      <point x="555" y="459"/>
      <point x="525" y="474"/>
      <point x="478" y="474" type="curve" smooth="yes"/>
      <point x="408" y="474"/>
      <point x="384" y="424"/>
      <point x="384" y="352" type="curve" smooth="yes"/>
      <point x="384" y="282"/>
      <point x="408" y="244"/>
      <point x="478" y="244" type="curve" smooth="yes"/>
      <point x="533" y="244"/>
      <point x="565" y="268"/>
      <point x="588" y="290" type="curve"/>
      <point x="659" y="194" type="line"/>
      <point x="615" y="154"/>
      <point x="558" y="120"/>
      <point x="455" y="120" type="curve" smooth="yes"/>
      <point x="301" y="120"/>
      <point x="218" y="206"/>
      <point x="218" y="356" type="curve" smooth="yes"/>
      <point x="218" y="503"/>
      <point x="303" y="594"/>
    </contour>
  </outline>
</glyph>
<glyph name="uni0308" format="2">
  <advance width="0"/>
  <unicode hex="0308"/>
  <anchor x="0" y="871" name="_AccentCenter"/>
  <outline>
    <contour>
      <point x="-105" y="934" type="curve" smooth="yes"/>
      <point x="-58" y="934"/>
      <point x="-20" y="896"/>
      <point x="-20" y="849" type="curve" smooth="yes"/>
      <point x="-20" y="802"/>
      <point x="-58" y="764"/>
      <point x="-105" y="764" type="curve" smooth="yes"/>
      <point x="-152" y="764"/>
      <point x="-190" y="802"/>
      <point x="-190" y="849" type="curve" smooth="yes"/>
      <point x="-190" y="896"/>
      <point x="-152" y="934"/>
    </contour>
    <contour>
      <point x="105" y="934" type="curve" smooth="yes"/>
      <point x="152" y="934"/>
      <point x="190" y="896"/>
      <point x="190" y="849" type="curve" smooth="yes"/>
      <point x="190" y="802"/>
      <point x="152" y="764"/>
      <point x="105" y="764" type="curve" smooth="yes"/>
      <point x="58" y="764"/>
      <point x="20" y="802"/>
      <point x="20" y="849" type="curve" smooth="yes"/>
      <point x="20" y="896"/>
      <point x="58" y="934"/>
    </contour>
  </outline>
</glyph>
<glyph name="alpha" format="2">
  <advance width="548"/>
  <unicode hex="03B1"/>
  <outline>
    <contour>
      <point x="396" y="0" type="line"/>
      <point x="359" y="98" type="line"/>
      <point x="343" y="33"/>
      <point x="280" y="-9"/>
      <point x="214" y="-9" type="curve" smooth="yes"/>
      <point x="83" y="-9"/>
      <point x="16" y="99"/>
      <point x="16" y="234" type="curve" smooth="yes"/>
      <point x="16" y="410"/>
      <point x="90" y="528"/>
      <point x="220" y="528" type="curve" smooth="yes"/>
      <point x="285" y="528"/>
      <point x="333" y="502"/>
      <point x="354" y="449" type="curve"/>
      <point x="393" y="520" type="line"/>
      <point x="509" y="520" type="line"/>
      <point x="461" y="208" type="line"/>
      <point x="532" y="0" type="line"/>
    </contour>
    <contour>
      <point x="261" y="398" type="curve" smooth="yes"/>
      <point x="193" y="398"/>
      <point x="176" y="320"/>
      <point x="176" y="241" type="curve" smooth="yes"/>
      <point x="176" y="176"/>
      <point x="185" y="121"/>
      <point x="245" y="121" type="curve" smooth="yes"/>
      <point x="283" y="121"/>
      <point x="310" y="158"/>
      <point x="321" y="249" type="curve" smooth="yes"/>
      <point x="334" y="352" type="line"/>
      <point x="317" y="379"/>
      <point x="292" y="398"/>
    </contour>
  </outline>
</glyph>
